<svg width="20" height="20" viewBox="0 0 20 20" fill="none" xmlns="http://www.w3.org/2000/svg">
<path d="M18.9325 11.4102C19.0081 10.944 19.0457 10.4724 19.045 10.0002C19.045 7.60129 18.092 5.30066 16.3958 3.60439C14.6995 1.90813 12.3989 0.955175 10 0.955175C9.52773 0.954442 9.05618 0.992065 8.59 1.06768C7.54456 0.441429 6.31986 0.182406 5.11038 0.331741C3.9009 0.481075 2.77598 1.0302 1.91426 1.89193C1.05253 2.75365 0.503402 3.87857 0.354068 5.08805C0.204734 6.29753 0.463756 7.52223 1.09 8.56768C1.00563 9.04064 0.960474 9.51977 0.955002 10.0002C0.955002 12.3991 1.90795 14.6997 3.60422 16.396C5.30049 18.0922 7.60112 19.0452 10 19.0452C10.4723 19.0459 10.9438 19.0083 11.41 18.9327C12.4554 19.5589 13.6801 19.8179 14.8896 19.6686C16.0991 19.5193 17.224 18.9701 18.0857 18.1084C18.9475 17.2467 19.4966 16.1218 19.6459 14.9123C19.7953 13.7028 19.5362 12.4781 18.91 11.4327L18.9325 11.4102ZM14.2975 14.1102C13.8742 14.6955 13.2908 15.146 12.6175 15.4077C11.7868 15.7337 10.8997 15.8917 10.0075 15.8727C8.96902 15.9161 7.9359 15.7023 7 15.2502C6.45437 14.9569 5.98645 14.5378 5.635 14.0277C5.31307 13.5919 5.13009 13.0691 5.11 12.5277C5.10921 12.3872 5.13745 12.2481 5.19294 12.119C5.24844 11.9899 5.33 11.8737 5.4325 11.7777C5.65966 11.5843 5.95209 11.4851 6.25 11.5002C6.49896 11.4955 6.74128 11.5807 6.9325 11.7402C7.14182 11.936 7.30346 12.1772 7.405 12.4452C7.53512 12.7584 7.70124 13.0554 7.9 13.3302C8.0981 13.5839 8.35571 13.7848 8.65 13.9152C9.04974 14.0867 9.48292 14.1661 9.9175 14.1477C10.5365 14.1777 11.1496 14.0152 11.6725 13.6827C11.8732 13.5651 12.0401 13.3977 12.157 13.1966C12.274 12.9956 12.337 12.7677 12.34 12.5352C12.3465 12.3723 12.3184 12.2099 12.2577 12.0587C12.1969 11.9075 12.1048 11.7708 11.9875 11.6577C11.7204 11.4116 11.3993 11.2318 11.05 11.1327C10.66 11.0052 10.1425 10.8777 9.49 10.7352C8.74062 10.5607 8.00976 10.3146 7.3075 10.0002C6.75492 9.7737 6.26767 9.41278 5.89 8.95018C5.5318 8.47336 5.34663 7.88877 5.365 7.29268C5.35894 6.68668 5.55414 6.0958 5.92 5.61267C6.33789 5.09349 6.89441 4.7034 7.525 4.48767C8.32236 4.22284 9.16024 4.10096 10 4.12768C10.6571 4.11605 11.3121 4.20457 11.9425 4.39018C12.4373 4.53708 12.902 4.77071 13.315 5.08017C13.64 5.3243 13.9108 5.63334 14.11 5.98767C14.2721 6.2739 14.3598 6.59626 14.365 6.92518C14.364 7.06539 14.335 7.20399 14.2796 7.3328C14.2242 7.46161 14.1436 7.57803 14.0425 7.67518C13.9404 7.78577 13.8162 7.87364 13.678 7.93308C13.5397 7.99252 13.3905 8.02219 13.24 8.02017C12.9987 8.03895 12.7596 7.9637 12.5725 7.81018C12.3757 7.62055 12.211 7.40017 12.085 7.15768C11.8993 6.77542 11.6301 6.43969 11.2975 6.17517C10.861 5.90304 10.3471 5.78183 9.835 5.83017C9.30931 5.80801 8.78842 5.93824 8.335 6.20517C8.1703 6.29312 8.03121 6.42227 7.93131 6.58C7.83141 6.73774 7.77411 6.91869 7.765 7.10518C7.75906 7.30894 7.82549 7.50822 7.9525 7.66768C8.10208 7.84099 8.28595 7.98144 8.4925 8.08017C8.71247 8.19396 8.94372 8.28446 9.1825 8.35018C9.4225 8.41768 9.8125 8.51517 10.36 8.64268C11.05 8.79268 11.665 8.95768 12.2275 9.13768C12.7306 9.29096 13.2102 9.51307 13.6525 9.79768C14.0383 10.0417 14.3558 10.3798 14.575 10.7802C14.7979 11.2369 14.9011 11.7427 14.875 12.2502C14.8818 12.9153 14.6798 13.5658 14.2975 14.1102Z" fill="white"/>
</svg>
